<svg xmlns="http://www.w3.org/2000/svg" xmlns:xlink="http://www.w3.org/1999/xlink" width="25.746" height="19.964" viewBox="0 0 25.746 19.964">
  <defs>
    <clipPath id="clip-path">
      <rect id="Прямоугольник_7" data-name="Прямоугольник 7" width="25.746" height="19.964" transform="translate(0 0)" fill="none"/>
    </clipPath>
  </defs>
  <g id="Сгруппировать_13" data-name="Сгруппировать 13" transform="translate(0 0)">
    <g id="Сгруппировать_11" data-name="Сгруппировать 11" transform="translate(0 0)" clip-path="url(#clip-path)">
      <path id="Контур_4" data-name="Контур 4" d="M19.123,19.962a15.983,15.983,0,0,1-1.37-2.262c.378-.17.754-.329,1.121-.5a5.192,5.192,0,0,0,1.056-.6c-.023-.02-.045-.042-.069-.062-.133-.107-.268-.211-.4-.319a.127.127,0,0,0-.155-.021,15.487,15.487,0,0,1-3.145,1.089,11.648,11.648,0,0,1-1.2.219c-.293.035-.586.069-.879.1-.22.02-.442.03-.663.038-.266.01-.533.018-.8.016-.218,0-.435-.021-.653-.033-.122-.007-.244-.012-.365-.023-.153-.014-.306-.031-.459-.049s-.312-.036-.467-.064c-.366-.066-.733-.129-1.1-.207a15.273,15.273,0,0,1-2.611-.839c-.187-.078-.371-.163-.555-.247a.1.1,0,0,0-.116,0c-.157.128-.316.254-.474.381A.243.243,0,0,0,5.8,16.6a.509.509,0,0,0,.071.056c.351.19.7.388,1.055.563.329.161.67.3,1.006.442l.041.02a.605.605,0,0,1-.025.071,14.6,14.6,0,0,1-.817,1.432c-.152.235-.312.464-.47.7-.052.077-.056.08-.141.051-.374-.127-.748-.253-1.119-.387-.459-.167-.908-.359-1.352-.564A20.889,20.889,0,0,1,1.7,17.718c-.508-.317-1-.657-1.486-1.006a.306.306,0,0,1-.135-.256C.069,16.229.059,16,.04,15.775c-.061-.732-.032-1.465-.035-2.2,0-.193.007-.385.021-.578.02-.281.046-.562.072-.843.025-.259.048-.517.083-.775.037-.276.079-.552.13-.826.084-.447.169-.9.271-1.339A20.5,20.5,0,0,1,1.42,6.493q.359-.937.8-1.841a25.364,25.364,0,0,1,1.4-2.51c.088-.139.178-.275.265-.415a.251.251,0,0,1,.115-.1Q4.943,1.193,5.93.845A20.1,20.1,0,0,1,8.019.237C8.391.151,8.766.08,9.14,0c.069-.014.084-.009.12.063q.289.583.574,1.169c.018.037.034.076.05.115a.075.075,0,0,0,.091.051c.2-.03.406-.061.609-.087.149-.019.3-.03.45-.044l.594-.054.029,0,.78-.022c.183-.005.366-.016.549-.015.244,0,.488.009.732.019.205.009.41.02.614.039.287.026.574.058.86.091.188.022.375.048.562.074a.084.084,0,0,0,.1-.056c.1-.232.2-.465.314-.694.1-.2.2-.4.306-.6a.082.082,0,0,1,.1-.048c.609.111,1.214.244,1.812.407a20.883,20.883,0,0,1,2.534.865c.282.117.56.243.838.37a.241.241,0,0,1,.093.092c.29.467.584.932.866,1.4s.547.983.792,1.49c.323.669.617,1.35.873,2.048q.316.86.563,1.741.258.923.43,1.866c.063.344.111.69.161,1.036q.052.362.092.725c.02.185.031.371.043.556.015.234.028.468.04.7q.012.226.018.452c.007.231.019.462.018.693,0,.273-.011.546-.021.819-.009.228-.022.455-.039.682-.015.208-.038.415-.054.623a.119.119,0,0,1-.06.092c-.156.114-.31.23-.468.341a22.221,22.221,0,0,1-1.923,1.217,20.313,20.313,0,0,1-2.956,1.365c-.323.118-.648.227-.973.34-.039.014-.08.022-.129.035m-4.307-8.949a2.266,2.266,0,0,0,.062.576A2.64,2.64,0,0,0,15.9,13.216a2.037,2.037,0,0,0,1.585.389,2.205,2.205,0,0,0,1.412-.868,2.887,2.887,0,0,0,.586-1.644,2.766,2.766,0,0,0-.042-.662,2.652,2.652,0,0,0-.76-1.475,2.128,2.128,0,0,0-1.751-.634,1.946,1.946,0,0,0-.532.125,2.381,2.381,0,0,0-1.247,1.14,2.888,2.888,0,0,0-.336,1.426m-3.9-.1a2.622,2.622,0,0,0-.1-.759A2.5,2.5,0,0,0,9.476,8.509a2.009,2.009,0,0,0-1.2-.179,2.165,2.165,0,0,0-1.36.777,2.856,2.856,0,0,0-.647,2.22,2.709,2.709,0,0,0,.22.815,2.529,2.529,0,0,0,.954,1.148,2.034,2.034,0,0,0,1.67.274,2.272,2.272,0,0,0,1.376-1.051,2.891,2.891,0,0,0,.427-1.6" transform="translate(0 0.003)" fill="#303030"/>
    </g>
  </g>
</svg>
