<svg xmlns="http://www.w3.org/2000/svg" xmlns:xlink="http://www.w3.org/1999/xlink" width="25.229" height="25.229" viewBox="0 0 25.229 25.229">
  <defs>
    <clipPath id="clip-path">
      <rect id="Прямоугольник_8" data-name="Прямоугольник 8" width="25.229" height="25.229" fill="none"/>
    </clipPath>
  </defs>
  <g id="Сгруппировать_15" data-name="Сгруппировать 15" transform="translate(0 0)">
    <g id="Сгруппировать_14" data-name="Сгруппировать 14" transform="translate(0 0)" clip-path="url(#clip-path)">
      <path id="Контур_5" data-name="Контур 5" d="M12.615,0A12.615,12.615,0,1,0,25.229,12.615,12.615,12.615,0,0,0,12.615,0M9.663,7.758c.076.049.118.061.13.086a8.348,8.348,0,0,1,.863,3.034,3.925,3.925,0,0,1-.773,2.2.306.306,0,0,1-.228.118c-1.083.005-2.166,0-3.249,0a.794.794,0,0,1-.172-.071L9.663,7.758m11.2,7.034c0,.065-.11.148-.186.179a3.712,3.712,0,0,0-1.86,1.716A12.385,12.385,0,0,1,17.8,18.151a2.278,2.278,0,0,1-1.919.893c-2.075-.02-4.15,0-6.224-.008a4.221,4.221,0,0,1-4.242-3.528c-.161-.865-.146-.884.707-.884q1.346,0,2.693,0c.126,0,.251.01.36.015.028.046.049.064.05.084.08,1.036.528,1.452,1.563,1.453h1.532V14.754H10.377l.321-.517a7.253,7.253,0,0,0,1.2-2.579,6.076,6.076,0,0,0-.443-3.113c-.26-.72-.606-1.409-.913-2.112-.041-.093-.084-.186-.161-.357l1.977.52c0-.3-.009-.553,0-.806a.7.7,0,0,1,.69-.73.716.716,0,0,1,.72.741,3.164,3.164,0,0,0,.041,1.1c.131.29.529.454.794.691a8.237,8.237,0,0,1,2.126,2.652,2.434,2.434,0,0,1-.158,2.527,21.322,21.322,0,0,1-1.5,1.828.634.634,0,0,1-.4.157c-.277.024-.558.007-.869.007v1.388c.975.029,1.987.22,2.692-.758a1.61,1.61,0,0,1,.963-.572c1.011-.271,2.013-.579,3.019-.871.109-.032.222-.052.393-.091,0,.331.011.629-.009.925" fill="#303030"/>
    </g>
  </g>
</svg>
