<svg xmlns="http://www.w3.org/2000/svg" xmlns:xlink="http://www.w3.org/1999/xlink" width="26.596" height="21.658" viewBox="0 0 26.596 21.658">
  <defs>
    <clipPath id="clip-path">
      <rect id="Прямоугольник_3" data-name="Прямоугольник 3" width="26.596" height="21.658" fill="none"/>
    </clipPath>
  </defs>
  <g id="Сгруппировать_2" data-name="Сгруппировать 2" transform="translate(0 0)">
    <g id="Сгруппировать_1" data-name="Сгруппировать 1" transform="translate(0 0)" clip-path="url(#clip-path)">
      <path id="Контур_1" data-name="Контур 1" d="M8.148,21.658h-.04l-.355-.013-.058,0-.1,0h-.1c-.319-.028-.64-.048-.958-.087-.368-.045-.736-.1-1.1-.162-.2-.034-.407-.086-.608-.135-.285-.069-.573-.13-.853-.217A15.937,15.937,0,0,1,.126,19.3c-.04-.026-.082-.048-.124-.072,0,0,0-.006,0-.012l.441.033H.482l.082,0,.149.013H.75l.27.009h.331l.164,0H1.64l.144,0c.374-.037.749-.069,1.123-.113A9.223,9.223,0,0,0,4.4,18.822a9.615,9.615,0,0,0,2.209-.931c.456-.268.89-.572,1.334-.861a1.171,1.171,0,0,0,.1-.087A5.379,5.379,0,0,1,4.9,15.852a5.445,5.445,0,0,1-1.943-2.709,5.2,5.2,0,0,0,2.406-.106c-.125-.031-.251-.058-.375-.094a5.506,5.506,0,0,1-1.312-.58,5.355,5.355,0,0,1-1.014-.792,5.442,5.442,0,0,1-1.269-1.96,4.533,4.533,0,0,1-.275-1.039c-.019-.155-.039-.311-.059-.466L1.045,7.67c0-.011,0-.023,0-.034l.038-.011c.236.111.468.23.708.329.164.067.342.1.511.157a5.641,5.641,0,0,0,1.044.181.337.337,0,0,0,.081-.005c.005,0,.01-.009.025-.023l-.3-.233a5.513,5.513,0,0,1-1.366-1.6,5.276,5.276,0,0,1-.46-1.084c-.058-.187-.1-.38-.147-.57l-.035-.189,0-.038-.015-.089,0-.033-.01-.149,0-.038L1.1,4.138q0-.051,0-.1V4.012q0-.039,0-.079V3.475q0-.061,0-.123c0-.021,0-.041,0-.062a7.025,7.025,0,0,1,.2-1.066,6.312,6.312,0,0,1,.489-1.163A.5.5,0,0,1,1.839.993,15.578,15.578,0,0,0,8.9,5.909a14.761,14.761,0,0,0,4.175.8l-.116-.789q0-.062,0-.124,0-.031,0-.061.009-.384.019-.767l0-.081.043-.31a5.339,5.339,0,0,1,.662-1.854A5.461,5.461,0,0,1,16.125.491,5.25,5.25,0,0,1,17.446.075c.2-.035.4-.049.6-.073l.685,0A5.374,5.374,0,0,1,21.48.919a5.074,5.074,0,0,1,.852.714.182.182,0,0,0,.2.057c.321-.087.643-.167.963-.256A9.852,9.852,0,0,0,25.673.5c.059-.033.12-.062.209-.108a5.2,5.2,0,0,1-.906,1.713,5.751,5.751,0,0,1-1.42,1.285,11.119,11.119,0,0,0,3.04-.819,10.743,10.743,0,0,1-2.68,2.8l-.016.085q0,.081,0,.161,0,.416,0,.831l-.013.328-.013.1c-.027.306-.049.613-.083.919-.036.329-.071.659-.13.984-.068.376-.144.752-.246,1.119-.144.518-.3,1.034-.478,1.541a15.687,15.687,0,0,1-1.589,3.222,15.445,15.445,0,0,1-2.426,2.935,14.659,14.659,0,0,1-5.4,3.238,13.6,13.6,0,0,1-1.822.487c-.371.07-.741.145-1.114.2-.26.038-.524.047-.786.069l-.062,0-.057,0-.067.011H9.575l-.166.015-.123,0-.166.005H9.039c-.257,0-.514,0-.771,0a.975.975,0,0,0-.12.015" fill="#303030"/>
    </g>
  </g>
</svg>
